<svg width="107" height="22" viewBox="0 0 107 22" fill="none" xmlns="http://www.w3.org/2000/svg">
<path fill-rule="evenodd" clip-rule="evenodd" d="M24.2486 15.6348H26.0726C26.2166 15.6348 26.3286 15.5708 26.3766 15.4108L28.4886 8.73877C28.5206 8.61077 28.6486 8.61077 28.6966 8.73877L31.2086 15.3628C31.2726 15.5388 31.3686 15.6348 31.5446 15.6348H32.6806C32.8406 15.6348 32.9686 15.5548 33.0326 15.3628L35.4646 8.73877C35.5126 8.61077 35.6566 8.61077 35.6886 8.73877L37.7526 15.4108C37.7846 15.5388 37.8806 15.6348 38.0406 15.6348H39.9766C40.1686 15.6348 40.2806 15.4908 40.2166 15.2828L37.0326 5.01077C36.9846 4.86677 36.8726 4.75477 36.7286 4.75477H35.0966C34.9526 4.75477 34.8246 4.88277 34.7766 5.01077L32.2646 11.4908C32.2166 11.6348 32.0886 11.6188 32.0406 11.4908L29.5126 5.01077C29.4646 4.88277 29.3366 4.75477 29.1926 4.75477H27.5606C27.4166 4.75477 27.3046 4.86677 27.2566 5.01077L24.0086 15.2828C23.9446 15.5068 24.0566 15.6348 24.2486 15.6348ZM45.0326 15.8428C42.5686 15.8428 40.7446 13.9868 40.7446 11.6188C40.7446 9.23477 42.5686 7.39477 45.0326 7.39477C47.5126 7.39477 49.3206 9.23477 49.3206 11.6188C49.3206 13.9868 47.5126 15.8428 45.0326 15.8428ZM45.0326 13.8588C46.2006 13.8588 47.1446 12.8508 47.1446 11.6188C47.1446 10.3708 46.2006 9.37877 45.0326 9.37877C43.8806 9.37877 42.9206 10.3708 42.9206 11.6188C42.9206 12.8508 43.8806 13.8588 45.0326 13.8588ZM55.3366 15.8428C54.3926 15.8428 53.7526 15.4588 53.1606 14.9788C53.0006 14.8508 52.8566 14.8988 52.8566 15.1228V15.3308C52.8566 15.4908 52.7286 15.6348 52.5686 15.6348H51.0646C50.9046 15.6348 50.7606 15.4908 50.7606 15.3308V5.05877C50.7606 4.89877 50.9046 4.75477 51.0646 4.75477H52.6486C52.8086 4.75477 52.9366 4.89877 52.9366 5.05877V7.98677C52.9366 8.19477 53.0806 8.25877 53.3046 8.09877C53.7846 7.74677 54.4886 7.39477 55.4006 7.39477C57.5926 7.39477 59.2726 9.25077 59.2726 11.6188C59.2726 13.9868 57.5606 15.8428 55.3366 15.8428ZM54.9686 13.8428C56.1526 13.8428 57.0966 12.8508 57.0966 11.6188C57.0966 10.3708 56.1526 9.37877 54.9686 9.37877C53.8166 9.37877 52.8726 10.3548 52.8726 11.6188C52.8726 12.8668 53.8006 13.8428 54.9686 13.8428ZM61.8166 6.72277C62.4726 6.72277 63.0326 6.16277 63.0326 5.50677C63.0326 4.85077 62.4726 4.29077 61.8166 4.29077C61.1606 4.29077 60.6006 4.85077 60.6006 5.50677C60.6006 6.16277 61.1606 6.72277 61.8166 6.72277ZM61.0006 15.6348H62.5846C62.7446 15.6348 62.8886 15.4908 62.8886 15.3308V7.90677C62.8886 7.74677 62.7446 7.60277 62.5846 7.60277H61.0006C60.8406 7.60277 60.7126 7.74677 60.7126 7.90677V15.3308C60.7126 15.4908 60.8406 15.6348 61.0006 15.6348ZM67.6086 15.7148C67.7686 15.7148 67.9126 15.5868 67.9126 15.4268V14.1148C67.9126 13.9388 67.7686 13.8108 67.6086 13.8108C67.0486 13.8108 66.8246 13.4748 66.8246 12.9628V5.05877C66.8246 4.89877 66.6806 4.75477 66.5206 4.75477H64.9366C64.7766 4.75477 64.6486 4.89877 64.6486 5.05877V12.9148C64.6486 15.0268 65.4966 15.7148 67.6086 15.7148ZM72.7286 15.8428C70.2966 15.8428 68.5686 14.0668 68.5686 11.6508C68.5686 9.21877 70.3606 7.39477 72.7606 7.39477C75.1446 7.39477 76.8886 9.25077 76.8886 11.6828C76.8886 11.9708 76.8086 12.2108 76.5206 12.2108H71.0166C70.8726 12.2108 70.8246 12.2908 70.8406 12.4188C70.9526 13.3308 71.7526 14.0028 72.7926 14.0028C73.4806 14.0028 73.9766 13.6988 74.3126 13.3148C74.4886 13.1228 74.6326 13.0588 74.8246 13.0588H76.2966C76.5526 13.0588 76.6646 13.2348 76.5686 13.4908C76.0406 14.8508 74.5366 15.8428 72.7286 15.8428ZM71.0326 10.9148H74.4086C74.5206 10.9148 74.5686 10.8668 74.5526 10.7388C74.3926 9.89077 73.6406 9.23477 72.7286 9.23477C71.8486 9.23477 71.1126 9.85877 70.9046 10.6908C70.8726 10.8028 70.8886 10.9148 71.0326 10.9148ZM78.7606 15.6348C78.6006 15.6348 78.4726 15.4908 78.4726 15.3308V5.05877C78.4726 4.89877 78.6006 4.75477 78.7606 4.75477H83.8006C86.1046 4.75477 87.6726 6.09877 87.6726 8.35477C87.6726 10.5628 85.8966 12.0028 83.6886 12.0028H81.0166C80.8246 12.0028 80.7286 12.1148 80.7286 12.3068V15.3308C80.7286 15.4908 80.5846 15.6348 80.4246 15.6348H78.7606ZM81.0006 10.1468H83.6886C84.7926 10.1468 85.4006 9.20277 85.4006 8.37077C85.4006 7.49077 84.8086 6.65877 83.6886 6.65877H81.0006C80.8086 6.65877 80.7286 6.75477 80.7286 6.94677V9.85877C80.7286 10.0508 80.8086 10.1468 81.0006 10.1468ZM92.5366 15.8428C90.3926 15.8428 88.6006 14.0348 88.6006 11.6188C88.6006 9.18677 90.4246 7.39477 92.5686 7.39477C93.4806 7.39477 94.1206 7.74677 94.6966 8.21077C94.8406 8.33877 95.0006 8.32277 95.0006 8.13077V7.89077C95.0006 7.73077 95.1286 7.60277 95.2886 7.60277H96.7926C96.9526 7.60277 97.0966 7.74677 97.0966 7.90677V13.2028C97.0966 13.6028 97.2406 13.7788 97.5126 13.7948C97.6566 13.8108 97.7846 13.9068 97.7846 14.0508V15.4428C97.7846 15.5868 97.6726 15.7148 97.5126 15.7148C96.4566 15.7148 95.8326 15.4108 95.4806 14.8028C95.3846 14.6428 95.2726 14.6108 95.1126 14.7708C94.4726 15.3628 93.7366 15.8428 92.5366 15.8428ZM92.9046 13.8588C94.0726 13.8588 95.0006 12.8668 95.0006 11.6188C95.0006 10.3548 94.0726 9.37877 92.9046 9.37877C91.7206 9.37877 90.7926 10.3708 90.7926 11.6188C90.7926 12.8508 91.7206 13.8588 92.9046 13.8588ZM98.9046 18.7548C101.241 18.7548 102.409 17.7788 103.513 15.1708L106.537 7.98677C106.617 7.79477 106.473 7.60277 106.265 7.60277H104.745C104.585 7.60277 104.505 7.69877 104.441 7.85877L102.681 12.1308C102.537 12.4668 102.345 12.4828 102.201 12.1468L100.361 7.89077C100.297 7.73077 100.201 7.60277 100.041 7.60277H98.4566C98.2646 7.60277 98.1046 7.77877 98.2006 8.03477L101.145 14.6908C101.241 14.9148 101.273 15.0908 101.209 15.3308C100.985 16.3068 99.9606 16.8668 98.9046 16.8668C98.7446 16.8668 98.6006 16.9948 98.6006 17.1548V18.4508C98.6006 18.6108 98.7446 18.7548 98.9046 18.7548Z" fill="#5A78FF"/>
<path fill-rule="evenodd" clip-rule="evenodd" d="M9.71698 14.12C11.5091 13.5738 13.0253 13.2992 14.2655 13.2962C16.316 13.2911 18.0351 13.6981 19.4229 14.5172V8.56059C18.028 7.83832 16.452 7.45277 14.6948 7.40393C12.9376 7.3551 11.2783 7.71297 9.71698 8.47752V14.12Z" fill="#5A78FF"/>
<path fill-rule="evenodd" clip-rule="evenodd" d="M6.80521 7.63461L9.01704 12.8995V7.8538C10.1824 7.22976 11.4161 6.82984 12.7182 6.65403C14.0202 6.47822 15.5002 6.50656 17.1581 6.73906L15.9552 3.86485C14.2124 3.75231 12.5522 4.03308 10.9746 4.70716C9.39697 5.38125 8.00717 6.35707 6.80521 7.63461Z" fill="#5A78FF"/>
<path d="M11.1807 3.90361C10.9871 3.43392 10.6967 2.72939 10.3096 1.79002C9.90209 0.801413 8.77523 0.328304 7.79264 0.733297L1.77913 3.21188C0.796545 3.61688 0.330322 4.74661 0.737795 5.73522L6.53617 19.8031C6.94364 20.7917 8.07051 21.2648 9.05309 20.8598L15.0666 18.3813C16.0492 17.9763 16.5154 16.8465 16.1079 15.8579C15.7407 14.967 15.5011 14.3856 15.3891 14.1138C15.0619 14.0945 14.8225 14.0829 14.6709 14.079C14.5108 14.0748 14.2827 14.0743 13.9865 14.0775C14.1309 14.4277 14.4426 15.1842 14.9218 16.3468C15.0577 16.6763 14.9023 17.0529 14.5747 17.1879L8.56123 19.6665C8.2337 19.8015 7.85808 19.6438 7.72226 19.3142L1.92388 5.24634C1.78806 4.91681 1.94347 4.54023 2.271 4.40523L8.2845 1.92665C8.61203 1.79165 8.98765 1.94935 9.12348 2.27889L10.004 4.41524C10.2757 4.28268 10.4845 4.18714 10.6305 4.12864C10.7765 4.07013 10.9599 3.99512 11.1807 3.90361Z" fill="#5A78FF"/>
</svg>
