<?xml version="1.0" encoding="UTF-8"?>
<svg id="Layer_1" data-name="Layer 1" xmlns="http://www.w3.org/2000/svg" xmlns:xlink="http://www.w3.org/1999/xlink" viewBox="0 0 20 20">
  <defs>
    <style>
      .cls-1 {
        clip-path: url(#clippath);
      }

      .cls-2 {
        fill: none;
      }

      .cls-2, .cls-3, .cls-4, .cls-5, .cls-6, .cls-7 {
        stroke-width: 0px;
      }

      .cls-3 {
        fill: url(#linear-gradient);
      }

      .cls-3, .cls-4, .cls-5, .cls-6, .cls-7 {
        fill-rule: evenodd;
      }

      .cls-4 {
        fill: url(#radial-gradient);
      }

      .cls-5 {
        fill: url(#radial-gradient-2);
      }

      .cls-6 {
        fill: #5a78ff;
      }

      .cls-7 {
        fill: #fff;
      }
    </style>
    <clipPath id="clippath">
      <rect class="cls-2" width="20" height="20"/>
    </clipPath>
    <radialGradient id="radial-gradient" cx="-764.16" cy="349.08" fx="-764.16" fy="349.08" r=".04" gradientTransform="translate(37078.24 -62224.27) rotate(-78.91) scale(89.25 -69.91)" gradientUnits="userSpaceOnUse">
      <stop offset="0" stop-color="#626262"/>
      <stop offset="1" stop-color="#fff"/>
    </radialGradient>
    <linearGradient id="linear-gradient" x1="8.79" y1="-146.89" x2="12.02" y2="-144.67" gradientTransform="translate(0 -136) scale(1 -1)" gradientUnits="userSpaceOnUse">
      <stop offset="0" stop-color="#d3d0dd"/>
      <stop offset="1" stop-color="#fff"/>
    </linearGradient>
    <radialGradient id="radial-gradient-2" cx="-795.24" cy="342.76" fx="-795.24" fy="342.76" r=".04" gradientTransform="translate(-46338.38 46650.14) rotate(90) scale(58.65 -135.23)" gradientUnits="userSpaceOnUse">
      <stop offset="0" stop-color="#dad7e2"/>
      <stop offset=".58" stop-color="#d9d6e2"/>
      <stop offset="1" stop-color="#fff" stop-opacity="0"/>
    </radialGradient>
  </defs>
  <g id="mask4_1498_2823" data-name="mask4 1498 2823">
    <g class="cls-1">
      <path class="cls-6" d="M20,6.33c0-.24,0-.49,0-.73,0-.21,0-.41,0-.61,0-.45-.05-.89-.12-1.33-.08-.44-.22-.87-.42-1.27-.41-.8-1.06-1.45-1.86-1.86-.4-.2-.82-.34-1.26-.42-.44-.07-.88-.11-1.33-.12-.2,0-.41,0-.61,0-.24,0-.48,0-.72,0h-7.33c-.24,0-.48,0-.73,0-.2,0-.41,0-.61,0-.45,0-.89.05-1.33.12-.44.07-.87.22-1.26.42-.8.41-1.45,1.06-1.86,1.86-.2.4-.34.83-.42,1.27-.07.44-.11.88-.12,1.33,0,.2,0,.41,0,.61C0,5.85,0,6.09,0,6.33v7.33C0,13.91,0,14.15,0,14.39c0,.21,0,.41,0,.61,0,.45.04.89.12,1.33.08.44.22.87.42,1.27.41.8,1.06,1.45,1.86,1.86.4.2.82.34,1.26.42.44.07.88.11,1.33.12.2,0,.41,0,.61,0,.24,0,.48,0,.73,0h7.33c.24,0,.48,0,.73,0,.2,0,.41,0,.61,0,.45,0,.89-.04,1.33-.12.44-.07.87-.22,1.26-.42.8-.41,1.45-1.06,1.86-1.86.2-.4.34-.83.42-1.27.07-.44.11-.88.12-1.33,0-.2,0-.41,0-.61,0-.24,0-.48,0-.73v-7.33h0Z"/>
    </g>
  </g>
  <path class="cls-4" d="M9,4.5c-.06,0-.12.01-.18.04l-3.69,1.53c-.12.05-.21.14-.25.26-.05.12-.05.24,0,.36l3.52,8.53c.1.24.38.36.61.26l3.69-1.53c.24-.1.35-.38.25-.62l-3.52-8.53c-.07-.18-.25-.29-.44-.29h0ZM8.84,16.06c-.4,0-.78-.24-.94-.63l-3.52-8.53c-.1-.25-.1-.53,0-.78.1-.25.3-.45.55-.55l3.69-1.53c.52-.22,1.12.03,1.33.55l3.52,8.53c.21.52-.03,1.12-.55,1.34l-3.69,1.53c-.13.05-.26.08-.39.08h0Z"/>
  <path class="cls-3" d="M12.12,10.25c-1.07.44-1.96,1.05-2.54,1.78l-1.5-3.63c.64-.77,1.47-1.34,2.54-1.78,1.07-.44,2.15-.66,3.06-.53l1.5,3.63c-.95-.1-1.99.09-3.06.53h0Z"/>
  <path class="cls-5" d="M12.12,10.25c-1.07.44-1.96,1.05-2.54,1.78l-1.5-3.63c.64-.77,1.47-1.34,2.54-1.78,1.07-.44,2.15-.66,3.06-.53l1.5,3.63c-.95-.1-1.99.09-3.06.53h0Z"/>
  <path class="cls-7" d="M12.63,11.36c-1.15,0-2.21.22-3.03.67v-3.63c.88-.46,1.87-.67,3.03-.67,1.15,0,2.23.21,3.03.67v3.63c-.84-.45-1.87-.67-3.03-.67h0Z"/>
</svg>